<svg width="59" height="59" viewBox="0 0 59 59" fill="#CDCDCD" xmlns="http://www.w3.org/2000/svg">
<path d="M29.2166 38.0101L35.1821 37.3152L36.8551 41.1627C37.1032 41.9531 37.4653 42.423 38.2634 42.2006C38.2865 42.1943 39.559 42.2649 39.1333 40.387C38.6057 38.6989 38.2116 37.011 37.684 35.3229C37.6728 35.248 37.5712 34.6368 36.9888 34.3035C36.4212 33.9789 35.8587 34.1825 35.7843 34.2108C34.8731 34.3498 33.0294 34.4891 32.1182 34.628L32.8263 29.7415C32.8292 29.3228 32.9441 28.9124 33.1591 28.5532L36.4125 22.8124C38.0257 22.9696 39.5563 23.1406 40.7347 23.2791C40.9772 25.5698 42.9144 27.3547 45.2694 27.3547C46.6487 27.3547 47.8822 26.7399 48.7185 25.7724L44.523 25.0325C43.9616 24.9335 44.0606 24.372 44.0606 24.372L44.6398 21.0869C44.7388 20.5254 45.3003 20.6244 45.3003 20.6244L49.6058 21.3835C49.0115 19.555 47.2959 18.2322 45.2694 18.2322C43.1024 18.2322 41.2923 19.7449 40.8275 21.7708C37.8133 21.4157 32.467 20.8426 29.343 20.8426H29.335C25.3727 20.844 18.0075 21.7659 16.2397 21.9948L15.7161 18.4887L14.0391 18.7391L15.2576 26.8983L16.9346 26.6477L16.4623 23.4853C17.4595 23.3567 19.7407 23.0719 22.2524 22.8202C23.4192 24.7464 24.5984 26.8833 25.7625 28.7676C25.9912 29.1377 26.1125 29.5642 26.1125 29.9991L26.845 34.4891L22.8707 34.0999C22.5268 34.0586 22.1755 34.1367 21.8925 34.336C21.8309 34.3795 21.7694 34.43 21.7107 34.4891C21.5275 34.6725 21.434 34.8697 21.3864 34.9986C20.7863 36.9128 20.1864 38.8273 19.5863 40.7418C19.42 41.2717 19.5932 41.8589 20.0384 42.1906C20.0548 42.2027 21.5526 42.6125 21.9116 41.3707C22.3225 40.0188 23.1995 38.6671 23.6103 37.3152L29.2166 38.0101ZM24.008 22.6543C25.9349 22.4842 27.8515 22.3578 29.3047 22.3572H29.3169C30.7767 22.3572 32.7331 22.4842 34.7085 22.6552C33.6438 24.2973 31.9086 26.2034 30.9693 27.7961C30.8303 28.0317 30.5788 28.1781 30.3054 28.1826L28.41 28.2144C28.1341 28.2189 27.8763 28.0786 27.7302 27.8446L24.008 22.6543Z" fill="white"/>
<path d="M29.2943 27.1509C30.4747 27.1509 31.4314 26.1939 31.4314 25.0138C31.4314 23.8334 30.4747 22.8765 29.2943 22.8765C28.1139 22.8765 27.1572 23.8334 27.1572 25.0138C27.1572 26.1939 28.1139 27.1509 29.2943 27.1509Z" fill="white"/>
<path d="M13.642 18.7984L11.9648 19.0488L13.1834 27.208L14.8605 26.9576L13.642 18.7984Z" fill="white"/>
<path d="M11.6181 19.9076L10.2656 20.1096L11.2483 26.6895L12.6007 26.4875L11.6181 19.9076Z" fill="white"/>
<path d="M32.3431 42.0888L31.8486 42.5094V42.7082H32.8864V42.4869H32.2036L32.4991 42.2407C32.7532 42.0334 32.8721 41.9103 32.8721 41.6845V41.6803C32.8721 41.424 32.6793 41.2517 32.3985 41.2517C32.142 41.2517 32.0067 41.3605 31.869 41.5511L32.0496 41.6927C32.1584 41.549 32.2486 41.4772 32.3799 41.4772C32.5112 41.4772 32.6118 41.5593 32.6118 41.7009C32.6118 41.8301 32.5401 41.9204 32.3431 42.0888Z" fill="white"/>
<path d="M31.0271 41.2478C30.6496 41.2478 30.3994 41.58 30.3994 41.9903V41.9943C30.3994 42.4049 30.6453 42.7329 31.0231 42.7329C31.4006 42.7329 31.6507 42.4007 31.6507 41.9903V41.9861C31.6507 41.5758 31.4027 41.2478 31.0271 41.2478ZM31.3903 41.9943C31.3903 42.2755 31.2508 42.5055 31.0271 42.5055C30.8034 42.5055 30.6596 42.2736 30.6596 41.9903V41.9861C30.6596 41.701 30.8013 41.4752 31.0231 41.4752C31.2447 41.4752 31.3903 41.7071 31.3903 41.9903V41.9943Z" fill="white"/>
<path d="M26.4909 42.5054C26.3143 42.5054 26.1748 42.4377 26.0374 42.3185L25.8857 42.4991C26.0581 42.6529 26.2651 42.7286 26.4848 42.7286C26.7863 42.7286 26.9976 42.5689 26.9976 42.3003V42.296C26.9976 42.058 26.8416 41.9492 26.538 41.8754C26.2611 41.8097 26.1955 41.7605 26.1955 41.6496V41.6456C26.1955 41.5511 26.2815 41.4751 26.4292 41.4751C26.5608 41.4751 26.69 41.5265 26.8192 41.6228L26.9544 41.4323C26.8091 41.3152 26.6428 41.2517 26.4334 41.2517C26.1481 41.2517 25.9432 41.4219 25.9432 41.6681V41.6721C25.9432 41.9368 26.1155 42.0273 26.421 42.1012C26.6878 42.1626 26.7456 42.2179 26.7456 42.3206V42.3249C26.7456 42.4316 26.6468 42.5054 26.4909 42.5054Z" fill="white"/>
<path d="M33.1221 41.9903V41.9943C33.1221 42.4049 33.3683 42.7329 33.7458 42.7329C34.1232 42.7329 34.3734 42.4007 34.3734 41.9903V41.9861C34.3734 41.5758 34.1254 41.2478 33.75 41.2478C33.3722 41.2478 33.1221 41.58 33.1221 41.9903ZM34.1132 41.9903V41.9943C34.1132 42.2755 33.9737 42.5055 33.75 42.5055C33.526 42.5055 33.3826 42.2736 33.3826 41.9903V41.9861C33.3826 41.701 33.5242 41.4752 33.7458 41.4752C33.9673 41.4752 34.1132 41.7071 34.1132 41.9903Z" fill="white"/>
<path d="M25.6728 41.4977V41.2725H24.6084V42.7083H25.6832V42.4828H24.8604V42.0968H25.5807V41.8715H24.8604V41.4977H25.6728Z" fill="white"/>
<path d="M27.1621 41.5059H27.6174V42.7083H27.8716V41.5059H28.3271V41.2725H27.1621V41.5059Z" fill="white"/>
<path d="M30.163 42.4869H29.48L29.7754 42.2407C30.0298 42.0334 30.1487 41.9103 30.1487 41.6845V41.6803C30.1487 41.424 29.956 41.2517 29.6748 41.2517C29.4186 41.2517 29.283 41.3605 29.1456 41.5511L29.3262 41.6927C29.435 41.549 29.5252 41.4772 29.6566 41.4772C29.7879 41.4772 29.8882 41.5593 29.8882 41.7009C29.8882 41.8301 29.8165 41.9204 29.6195 42.0888L29.125 42.5094V42.7082H30.163V42.4869Z" fill="white"/>
<path d="M16.2744 48.1423L17.5022 48.7901L18.2069 48.1876L19.846 49.0525L19.7462 49.9742L21.0044 50.6379L21.4518 45.4229L20.3207 44.8259L16.2744 48.1423ZM19.9832 47.9573L19.0333 47.4562L20.1431 46.5106L19.9832 47.9573Z" fill="white"/>
<path d="M17.7547 43.0634L15.225 43.362L16.5483 41.9404L15.5773 41.0364L12.3154 44.5402L13.2867 45.4442L14.1346 44.5333L14.8536 44.4738L14.528 46.6L15.6893 47.6809L16.1817 44.402L18.9059 44.1352L17.7547 43.0634Z" fill="white"/>
<path d="M11.2449 39.791L12.5081 41.7102L13.3822 41.135L12.1187 39.2158L12.7299 38.8134L14.125 40.9327L15.0619 40.316L12.9449 37.0999L8.94629 39.732L11.0821 42.9764L12.0245 42.3562L10.6108 40.2082L11.2449 39.791Z" fill="white"/>
<path d="M12.2087 34.9136L10.1068 34.3473L11.5575 32.7243L11.1578 31.3806L6.56934 32.7455L6.93969 33.991L9.56837 33.209L8.1259 34.908L8.13357 34.9342L10.2789 35.5733L7.64384 36.3571L8.02002 37.6222L12.6084 36.2573L12.2087 34.9136Z" fill="white"/>
<path d="M44.864 41.8618L44.8542 41.8521C44.5246 41.5145 44.1685 41.3554 43.7722 41.3509C43.3177 41.3454 42.8219 41.5619 42.2983 42.0731L40.6787 43.6545L44.0229 47.0798L44.9722 46.1527L43.9594 45.1155L44.3803 44.7047L46.083 45.0681L47.1742 44.0029L45.1911 43.6069C45.4402 43.0102 45.3799 42.3905 44.864 41.8618ZM43.8644 43.7554L43.2333 44.3717L42.4259 43.5449L43.0519 42.9332C43.3651 42.6274 43.6997 42.5686 43.9671 42.8426L43.9766 42.8524C44.2204 43.1021 44.1823 43.4449 43.8644 43.7554Z" fill="white"/>
<path d="M48.0119 40.7935L47.3586 40.4073L48.5278 38.4293L47.6272 37.8967L46.4577 39.8747L45.8279 39.5022L47.1192 37.3183L46.1538 36.7476L44.1943 40.0619L48.315 42.4981L50.2919 39.1544L49.3207 38.58L48.0119 40.7935Z" fill="white"/>
<path d="M52.3192 32.8955L47.6982 31.6453L47.3554 32.9128L49.7977 33.5735L46.8408 34.814L46.5176 36.0087L51.1383 37.2592L51.4814 35.9917L48.9464 35.3058L52.0172 34.0113L52.3192 32.8955Z" fill="white"/>
<path d="M30.5816 47.2936L29.2559 47.344L29.4377 52.1276L30.7635 52.0772L30.5816 47.2936Z" fill="white"/>
<path d="M39.5553 48.5508L39.1849 47.8882L41.1907 46.7669L40.6801 45.8536L38.6746 46.975L38.3175 46.3362L40.5321 45.0981L39.9847 44.1191L36.624 45.9979L38.9599 50.1765L42.3505 48.2811L41.7999 47.2961L39.5553 48.5508Z" fill="white"/>
<path d="M26.4127 49.6415L24.9546 46.7859L23.7387 46.553L22.8379 51.2544L24.1276 51.5014L24.6219 48.9225L26.1427 51.8876L27.2775 52.105L28.1784 47.4035L26.8889 47.1565L26.4127 49.6415Z" fill="white"/>
<path d="M36.1301 46.2434L34.6021 46.6161L33.4612 48.8938L33.0008 47.0069L31.7119 47.3213L32.8468 51.972L34.1357 51.6575L33.8408 50.4485L34.186 49.815L35.7833 51.2556L37.3248 50.8795L34.8557 48.6661L36.1301 46.2434Z" fill="white"/>
<path d="M39.0744 13.8485L39.5766 12.8381L37.2738 11.6937L37.6116 11.0139L39.6692 12.0365L40.1349 11.0994L38.0772 10.077L38.4028 9.42159L40.6749 10.5506L41.1742 9.54628L37.7262 7.83301L35.5957 12.1199L39.0744 13.8485Z" fill="white"/>
<path d="M42.4923 16.661L43.243 15.7734L41.4726 14.2764L43.813 11.5087L42.7999 10.6521L39.709 14.3076L42.4923 16.661Z" fill="white"/>
<path d="M32.2105 10.0467L32.7984 9.62866L33.6029 11.6236L35.1531 11.9608L33.9042 8.88956L36.1114 7.27027L34.5744 6.93566L32.5509 8.48295L32.9639 6.58517L31.6675 6.30298L30.6494 10.9806L31.9457 11.2628L32.2105 10.0467Z" fill="white"/>
<path d="M17.4469 15.5492L15.8308 13.3335L17.9144 14.1245L17.9367 14.1086L17.8215 11.8733L19.4413 14.0943L20.5079 13.3165L17.687 9.44897L16.5543 10.2752L16.7237 12.4453L14.7089 11.621L13.5762 12.4472L16.397 16.3148L17.4469 15.5492Z" fill="white"/>
<path d="M28.0334 10.1537C27.4807 10.1887 26.9494 10.0238 26.448 9.67858L25.7666 10.6056C26.3937 11.0935 27.2091 11.3093 28.0554 11.2555C29.2157 11.1819 29.95 10.5529 29.8883 9.57719L29.8872 9.56343C29.8306 8.66946 29.1256 8.35763 28.0186 8.18794C27.3401 8.08019 27.1704 7.99522 27.1564 7.77682L27.1556 7.76305C27.1445 7.5857 27.2932 7.44592 27.6138 7.42554C28.0371 7.3988 28.5247 7.52561 28.9814 7.81177L29.5841 6.83495C29.0391 6.45137 28.3905 6.27321 27.5784 6.32457C26.4318 6.39736 25.7695 7.08353 25.8256 7.97059L25.8267 7.98436C25.8884 8.96039 26.6915 9.19732 27.7232 9.36489C28.3881 9.4803 28.5517 9.57268 28.5647 9.77732L28.5655 9.79108C28.5785 9.99571 28.3953 10.1307 28.0334 10.1537Z" fill="white"/>
<path d="M23.294 12.2729C24.5776 11.8207 25.1825 10.8826 24.6714 9.43137L23.7898 6.92871L22.5255 7.37397L23.4208 9.91528C23.6434 10.5474 23.419 10.9601 22.9094 11.1396C22.4061 11.3167 21.9683 11.1229 21.7388 10.4715L20.8549 7.96244L19.5908 8.4077L20.4835 10.9427C20.9811 12.3552 22.0167 12.7226 23.294 12.2729Z" fill="white"/>
</svg>
